<svg width="35" height="35" viewBox="0 0 35 35" fill="none" xmlns="http://www.w3.org/2000/svg">
<path d="M19.7529 11.9374L19.8994 12.5172L20.4441 12.2702L28.8199 8.47253L23.2536 15.7932L22.8916 16.2693L23.4243 16.5412L31.6157 20.7218L22.4216 20.9343L21.8237 20.9482L21.9433 21.5342L23.782 30.545L17.8834 23.4893L17.4998 23.0304L17.1162 23.4893L11.2176 30.545L13.0563 21.5342L13.1759 20.9482L12.578 20.9343L3.38391 20.7218L11.5753 16.5412L12.108 16.2693L11.746 15.7932L6.17973 8.47253L14.5555 12.2702L15.1002 12.5172L15.2468 11.9374L17.4998 3.02107L19.7529 11.9374Z" stroke="white"/>
</svg>
