<svg width="35" height="35" viewBox="0 0 35 35" fill="none" xmlns="http://www.w3.org/2000/svg">
<path d="M29.5548 12.5444C29.5548 13.0495 29.3044 13.5794 28.7482 14.1126C28.1906 14.647 27.3573 15.1513 26.2864 15.5855C24.1474 16.4527 21.1579 17.0004 17.8301 17.0004C14.5024 17.0004 11.5129 16.4527 9.37384 15.5855C8.30302 15.1513 7.46972 14.647 6.91213 14.1126C6.35585 13.5794 6.10547 13.0495 6.10547 12.5444C6.10547 12.0394 6.35585 11.5095 6.91213 10.9763C7.46972 10.4419 8.30302 9.93755 9.37384 9.50343C11.5129 8.63624 14.5024 8.0885 17.8301 8.0885C21.1579 8.0885 24.1474 8.63624 26.2864 9.50343C27.3573 9.93755 28.1906 10.4419 28.7482 10.9763C29.3044 11.5095 29.5548 12.0394 29.5548 12.5444Z" stroke="white"/>
<path d="M29.5548 17.8307C29.5548 18.3357 29.3044 18.8656 28.7482 19.3988C28.1906 19.9333 27.3573 20.4376 26.2864 20.8717C24.1474 21.7389 21.1579 22.2866 17.8301 22.2866C14.5024 22.2866 11.5129 21.7389 9.37384 20.8717C8.30302 20.4376 7.46972 19.9333 6.91213 19.3988C6.35585 18.8656 6.10547 18.3357 6.10547 17.8307C6.10547 17.3257 6.35585 16.7958 6.91213 16.2626C7.46972 15.7281 8.30302 15.2238 9.37384 14.7897C11.5129 13.9225 14.5024 13.3748 17.8301 13.3748C21.1579 13.3748 24.1474 13.9225 26.2864 14.7897C27.3573 15.2238 28.1906 15.7281 28.7482 16.2626C29.3044 16.7958 29.5548 17.3257 29.5548 17.8307Z" stroke="white"/>
<path d="M29.5548 23.1167C29.5548 23.6217 29.3044 24.1516 28.7482 24.6848C28.1906 25.2193 27.3573 25.7236 26.2864 26.1577C24.1474 27.0249 21.1579 27.5727 17.8301 27.5727C14.5024 27.5727 11.5129 27.0249 9.37384 26.1577C8.30302 25.7236 7.46972 25.2193 6.91213 24.6848C6.35585 24.1516 6.10547 23.6217 6.10547 23.1167C6.10547 22.6117 6.35585 22.0818 6.91213 21.5486C7.46972 21.0142 8.30302 20.5098 9.37384 20.0757C11.5129 19.2085 14.5024 18.6608 17.8301 18.6608C21.1579 18.6608 24.1474 19.2085 26.2864 20.0757C27.3573 20.5098 28.1906 21.0142 28.7482 21.5486C29.3044 22.0818 29.5548 22.6117 29.5548 23.1167Z" stroke="white"/>
</svg>
