<svg width="198" height="41" viewBox="0 0 198 41" fill="none" xmlns="http://www.w3.org/2000/svg">
<g clip-path="url(#clip0_88_3144)">
<rect x="0.5" y="0.5" width="197" height="40" rx="20" stroke="#426932" stroke-dasharray="7 7"/>
<path d="M62.875 16.1875H56.5L55.735 14.6469C55.6456 14.4703 55.5088 14.3221 55.3399 14.2188C55.171 14.1156 54.9767 14.0615 54.7787 14.0625H50.125C49.8435 14.0633 49.5737 14.1755 49.3746 14.3746C49.1755 14.5737 49.0633 14.8435 49.0625 15.125V25.75C49.0633 26.0316 49.1755 26.3013 49.3746 26.5004C49.5737 26.6995 49.8435 26.8117 50.125 26.8125H56.3122C56.0889 26.3106 55.972 25.768 55.9688 25.2188C55.9657 24.2739 56.2786 23.355 56.8577 22.6084C57.4368 21.8618 58.249 21.3301 59.1649 21.0981C60.0809 20.8661 61.0482 20.9469 61.9129 21.3277C62.7777 21.7086 63.4903 22.3676 63.9375 23.2V17.25C63.9367 16.9685 63.8245 16.6987 63.6254 16.4996C63.4263 16.3005 63.1565 16.1883 62.875 16.1875Z" fill="#7EB338"/>
<path d="M60.2187 22.0313C59.3741 22.0337 58.5648 22.3703 57.9675 22.9676C57.3703 23.5648 57.0337 24.3741 57.0312 25.2188C57.0257 25.6878 57.1351 26.1511 57.35 26.5681C57.593 27.0834 57.97 27.5238 58.4416 27.8435C58.9131 28.1632 59.4619 28.3503 60.0305 28.3854C60.5991 28.4204 61.1667 28.302 61.6739 28.0426C62.1812 27.7832 62.6094 27.3924 62.9138 26.9109C63.2183 26.4294 63.3878 25.8749 63.4047 25.3055C63.4216 24.736 63.2852 24.1725 63.0097 23.6738C62.7343 23.1751 62.3299 22.7596 61.839 22.4706C61.348 22.1817 60.7884 22.0299 60.2187 22.0313ZM61.8125 25.75H60.75V26.8125C60.75 26.9534 60.694 27.0885 60.5944 27.1882C60.4947 27.2878 60.3596 27.3438 60.2187 27.3438C60.0778 27.3438 59.9427 27.2878 59.8431 27.1882C59.7434 27.0885 59.6875 26.9534 59.6875 26.8125V25.75H58.625C58.4841 25.75 58.3489 25.694 58.2493 25.5944C58.1497 25.4948 58.0937 25.3597 58.0937 25.2188C58.0937 25.0779 58.1497 24.9427 58.2493 24.8431C58.3489 24.7435 58.4841 24.6875 58.625 24.6875H59.6875V23.625C59.6875 23.4841 59.7434 23.349 59.8431 23.2494C59.9427 23.1497 60.0778 23.0938 60.2187 23.0938C60.3596 23.0938 60.4947 23.1497 60.5944 23.2494C60.694 23.349 60.75 23.4841 60.75 23.625V24.6875H61.8125C61.9534 24.6875 62.0885 24.7435 62.1881 24.8431C62.2877 24.9427 62.3437 25.0779 62.3437 25.2188C62.3437 25.3597 62.2877 25.4948 62.1881 25.5944C62.0885 25.694 61.9534 25.75 61.8125 25.75Z" fill="#7EB338"/>
<path d="M81.1059 15.97C80.5739 15.97 80.0932 16.0633 79.6639 16.25C79.2345 16.4273 78.8705 16.6933 78.5719 17.048C78.2732 17.3933 78.0445 17.818 77.8859 18.322C77.7272 18.8167 77.6479 19.3767 77.6479 20.002C77.6479 20.8233 77.7739 21.5373 78.0259 22.144C78.2872 22.7507 78.6699 23.2173 79.1739 23.544C79.6872 23.8707 80.3265 24.034 81.0919 24.034C81.5305 24.034 81.9459 23.9967 82.3379 23.922C82.7299 23.8473 83.1125 23.754 83.4859 23.642V24.734C83.1125 24.874 82.7252 24.9767 82.3239 25.042C81.9319 25.1073 81.4605 25.14 80.9099 25.14C79.8925 25.14 79.0432 24.93 78.3619 24.51C77.6805 24.09 77.1672 23.4927 76.8219 22.718C76.4859 21.9433 76.3179 21.0333 76.3179 19.988C76.3179 19.232 76.4205 18.5413 76.6259 17.916C76.8405 17.2907 77.1485 16.7493 77.5499 16.292C77.9605 15.8347 78.4645 15.4847 79.0619 15.242C79.6592 14.99 80.3452 14.864 81.1199 14.864C81.6332 14.864 82.1279 14.9153 82.6039 15.018C83.0799 15.1207 83.5045 15.2653 83.8779 15.452L83.3739 16.516C83.0659 16.376 82.7205 16.25 82.3379 16.138C81.9645 16.026 81.5539 15.97 81.1059 15.97ZM86.7316 17.482C86.7316 17.6593 86.7222 17.8413 86.7036 18.028C86.6942 18.2147 86.6802 18.3827 86.6616 18.532H86.7456C86.9042 18.2707 87.1049 18.056 87.3476 17.888C87.5902 17.72 87.8609 17.594 88.1596 17.51C88.4582 17.4167 88.7662 17.37 89.0836 17.37C89.6902 17.37 90.1942 17.468 90.5956 17.664C91.0062 17.8507 91.3142 18.1447 91.5196 18.546C91.7249 18.9473 91.8276 19.47 91.8276 20.114V25H90.6096V20.198C90.6096 19.5913 90.4742 19.1387 90.2036 18.84C89.9329 18.5413 89.5082 18.392 88.9296 18.392C88.3696 18.392 87.9309 18.4993 87.6136 18.714C87.2962 18.9193 87.0676 19.2273 86.9276 19.638C86.7969 20.0393 86.7316 20.534 86.7316 21.122V25H85.4996V14.36H86.7316V17.482ZM100.678 21.234C100.678 21.8593 100.594 22.4147 100.426 22.9C100.267 23.376 100.034 23.782 99.7259 24.118C99.4272 24.454 99.0585 24.7107 98.6199 24.888C98.1905 25.056 97.7099 25.14 97.1779 25.14C96.6832 25.14 96.2259 25.056 95.8059 24.888C95.3859 24.7107 95.0219 24.454 94.7139 24.118C94.4059 23.782 94.1632 23.376 93.9859 22.9C93.8179 22.4147 93.7339 21.8593 93.7339 21.234C93.7339 20.4033 93.8739 19.7033 94.1539 19.134C94.4339 18.5553 94.8352 18.1167 95.3579 17.818C95.8805 17.51 96.5012 17.356 97.2199 17.356C97.9012 17.356 98.4985 17.51 99.0119 17.818C99.5345 18.1167 99.9405 18.5553 100.23 19.134C100.529 19.7033 100.678 20.4033 100.678 21.234ZM95.0079 21.234C95.0079 21.822 95.0825 22.3353 95.2319 22.774C95.3905 23.2033 95.6332 23.5347 95.9599 23.768C96.2865 24.0013 96.7019 24.118 97.2059 24.118C97.7099 24.118 98.1252 24.0013 98.4519 23.768C98.7785 23.5347 99.0165 23.2033 99.1659 22.774C99.3245 22.3353 99.4039 21.822 99.4039 21.234C99.4039 20.6367 99.3245 20.128 99.1659 19.708C99.0072 19.288 98.7645 18.966 98.4379 18.742C98.1205 18.5087 97.7052 18.392 97.1919 18.392C96.4265 18.392 95.8712 18.644 95.5259 19.148C95.1805 19.652 95.0079 20.3473 95.0079 21.234ZM109.154 21.234C109.154 21.8593 109.07 22.4147 108.902 22.9C108.744 23.376 108.51 23.782 108.202 24.118C107.904 24.454 107.535 24.7107 107.096 24.888C106.667 25.056 106.186 25.14 105.654 25.14C105.16 25.14 104.702 25.056 104.282 24.888C103.862 24.7107 103.498 24.454 103.19 24.118C102.882 23.782 102.64 23.376 102.462 22.9C102.294 22.4147 102.21 21.8593 102.21 21.234C102.21 20.4033 102.35 19.7033 102.63 19.134C102.91 18.5553 103.312 18.1167 103.834 17.818C104.357 17.51 104.978 17.356 105.696 17.356C106.378 17.356 106.975 17.51 107.488 17.818C108.011 18.1167 108.417 18.5553 108.706 19.134C109.005 19.7033 109.154 20.4033 109.154 21.234ZM103.484 21.234C103.484 21.822 103.559 22.3353 103.708 22.774C103.867 23.2033 104.11 23.5347 104.436 23.768C104.763 24.0013 105.178 24.118 105.682 24.118C106.186 24.118 106.602 24.0013 106.928 23.768C107.255 23.5347 107.493 23.2033 107.642 22.774C107.801 22.3353 107.88 21.822 107.88 21.234C107.88 20.6367 107.801 20.128 107.642 19.708C107.484 19.288 107.241 18.966 106.914 18.742C106.597 18.5087 106.182 18.392 105.668 18.392C104.903 18.392 104.348 18.644 104.002 19.148C103.657 19.652 103.484 20.3473 103.484 21.234ZM115.993 22.928C115.993 23.4133 115.872 23.8193 115.629 24.146C115.386 24.4727 115.041 24.72 114.593 24.888C114.145 25.056 113.613 25.14 112.997 25.14C112.474 25.14 112.022 25.098 111.639 25.014C111.266 24.93 110.934 24.8133 110.645 24.664V23.544C110.944 23.6933 111.303 23.8333 111.723 23.964C112.152 24.0853 112.586 24.146 113.025 24.146C113.65 24.146 114.103 24.048 114.383 23.852C114.663 23.6467 114.803 23.376 114.803 23.04C114.803 22.8533 114.752 22.6853 114.649 22.536C114.546 22.3867 114.36 22.2373 114.089 22.088C113.828 21.9387 113.45 21.7707 112.955 21.584C112.47 21.3973 112.054 21.2107 111.709 21.024C111.364 20.8373 111.098 20.6133 110.911 20.352C110.724 20.0907 110.631 19.7547 110.631 19.344C110.631 18.7093 110.888 18.2193 111.401 17.874C111.924 17.5287 112.605 17.356 113.445 17.356C113.902 17.356 114.327 17.4027 114.719 17.496C115.12 17.58 115.494 17.7013 115.839 17.86L115.419 18.84C115.214 18.7467 114.994 18.6673 114.761 18.602C114.537 18.5273 114.308 18.4713 114.075 18.434C113.842 18.3873 113.604 18.364 113.361 18.364C112.857 18.364 112.47 18.448 112.199 18.616C111.938 18.7747 111.807 18.994 111.807 19.274C111.807 19.4793 111.868 19.6567 111.989 19.806C112.11 19.946 112.311 20.086 112.591 20.226C112.88 20.3567 113.263 20.5153 113.739 20.702C114.215 20.8793 114.621 21.0613 114.957 21.248C115.293 21.4347 115.55 21.6633 115.727 21.934C115.904 22.1953 115.993 22.5267 115.993 22.928ZM120.704 17.356C121.348 17.356 121.899 17.496 122.356 17.776C122.823 18.056 123.178 18.4527 123.42 18.966C123.672 19.47 123.798 20.0627 123.798 20.744V21.486H118.66C118.679 22.3353 118.894 22.984 119.304 23.432C119.724 23.8707 120.308 24.09 121.054 24.09C121.53 24.09 121.95 24.048 122.314 23.964C122.688 23.8707 123.07 23.74 123.462 23.572V24.65C123.08 24.818 122.702 24.9393 122.328 25.014C121.955 25.098 121.512 25.14 120.998 25.14C120.289 25.14 119.659 24.9953 119.108 24.706C118.567 24.4167 118.142 23.9873 117.834 23.418C117.536 22.8393 117.386 22.1347 117.386 21.304C117.386 20.4827 117.522 19.778 117.792 19.19C118.072 18.602 118.46 18.1493 118.954 17.832C119.458 17.5147 120.042 17.356 120.704 17.356ZM120.69 18.364C120.102 18.364 119.636 18.5553 119.29 18.938C118.954 19.3113 118.754 19.834 118.688 20.506H122.51C122.51 20.0767 122.445 19.7033 122.314 19.386C122.184 19.0687 121.983 18.8213 121.712 18.644C121.451 18.4573 121.11 18.364 120.69 18.364ZM130.773 25H129.513V15.004H135.099V16.11H130.773V19.652H134.833V20.758H130.773V25ZM137.837 17.496V25H136.605V17.496H137.837ZM137.235 14.682C137.422 14.682 137.585 14.7473 137.725 14.878C137.874 14.9993 137.949 15.1953 137.949 15.466C137.949 15.7273 137.874 15.9233 137.725 16.054C137.585 16.1847 137.422 16.25 137.235 16.25C137.03 16.25 136.857 16.1847 136.717 16.054C136.577 15.9233 136.507 15.7273 136.507 15.466C136.507 15.1953 136.577 14.9993 136.717 14.878C136.857 14.7473 137.03 14.682 137.235 14.682ZM141.446 25H140.214V14.36H141.446V25ZM146.722 17.356C147.366 17.356 147.916 17.496 148.374 17.776C148.84 18.056 149.195 18.4527 149.438 18.966C149.69 19.47 149.816 20.0627 149.816 20.744V21.486H144.678C144.696 22.3353 144.911 22.984 145.322 23.432C145.742 23.8707 146.325 24.09 147.072 24.09C147.548 24.09 147.968 24.048 148.332 23.964C148.705 23.8707 149.088 23.74 149.48 23.572V24.65C149.097 24.818 148.719 24.9393 148.346 25.014C147.972 25.098 147.529 25.14 147.016 25.14C146.306 25.14 145.676 24.9953 145.126 24.706C144.584 24.4167 144.16 23.9873 143.852 23.418C143.553 22.8393 143.404 22.1347 143.404 21.304C143.404 20.4827 143.539 19.778 143.81 19.19C144.09 18.602 144.477 18.1493 144.972 17.832C145.476 17.5147 146.059 17.356 146.722 17.356ZM146.708 18.364C146.12 18.364 145.653 18.5553 145.308 18.938C144.972 19.3113 144.771 19.834 144.706 20.506H148.528C148.528 20.0767 148.462 19.7033 148.332 19.386C148.201 19.0687 148 18.8213 147.73 18.644C147.468 18.4573 147.128 18.364 146.708 18.364Z" fill="#7EB338"/>
</g>
<defs>
<clipPath id="clip0_88_3144">
<rect width="198" height="41" fill="white"/>
</clipPath>
</defs>
</svg>
