<svg width="50" height="50" viewBox="0 0 50 50" fill="none" xmlns="http://www.w3.org/2000/svg">
<path d="M43.7 17.5C43.7 18.428 43.2373 19.3413 42.3386 20.2028C41.439 21.065 40.1215 21.8552 38.4688 22.5253C35.1648 23.8647 30.5798 24.7 25.5 24.7C20.4202 24.7 15.8352 23.8647 12.5312 22.5253C10.8785 21.8552 9.56096 21.065 8.66141 20.2028C7.76265 19.3413 7.3 18.428 7.3 17.5C7.3 16.572 7.76265 15.6587 8.66141 14.7972C9.56096 13.935 10.8785 13.1448 12.5312 12.4747C15.8352 11.1353 20.4202 10.3 25.5 10.3C30.5798 10.3 35.1648 11.1353 38.4688 12.4747C40.1215 13.1448 41.439 13.935 42.3386 14.7972C43.2373 15.6587 43.7 16.572 43.7 17.5Z" stroke="#7EB338" stroke-width="0.6"/>
<path d="M43.7 25.5C43.7 26.428 43.2373 27.3413 42.3386 28.2028C41.439 29.065 40.1215 29.8552 38.4688 30.5253C35.1648 31.8647 30.5798 32.7 25.5 32.7C20.4202 32.7 15.8352 31.8647 12.5312 30.5253C10.8785 29.8552 9.56096 29.065 8.66141 28.2028C7.76265 27.3413 7.3 26.428 7.3 25.5C7.3 24.572 7.76265 23.6587 8.66141 22.7972C9.56096 21.935 10.8785 21.1448 12.5312 20.4747C15.8352 19.1353 20.4202 18.3 25.5 18.3C30.5798 18.3 35.1648 19.1353 38.4688 20.4747C40.1215 21.1448 41.439 21.935 42.3386 22.7972C43.2373 23.6587 43.7 24.572 43.7 25.5Z" stroke="#7EB338" stroke-width="0.6"/>
<path d="M43.7 33.5C43.7 34.428 43.2373 35.3413 42.3386 36.2028C41.439 37.065 40.1215 37.8552 38.4688 38.5253C35.1648 39.8647 30.5798 40.7 25.5 40.7C20.4202 40.7 15.8352 39.8647 12.5312 38.5253C10.8785 37.8552 9.56096 37.065 8.66141 36.2028C7.76265 35.3413 7.3 34.428 7.3 33.5C7.3 32.572 7.76265 31.6587 8.66141 30.7972C9.56096 29.935 10.8785 29.1448 12.5312 28.4747C15.8352 27.1353 20.4202 26.3 25.5 26.3C30.5798 26.3 35.1648 27.1353 38.4688 28.4747C40.1215 29.1448 41.439 29.935 42.3386 30.7972C43.2373 31.6587 43.7 32.572 43.7 33.5Z" stroke="#7EB338" stroke-width="0.6"/>
</svg>
