<svg width="20" height="20" viewBox="0 0 20 20" fill="none" xmlns="http://www.w3.org/2000/svg">
<path d="M13.9875 12.2688C13.957 12.1267 13.8779 11.9996 13.7638 11.9095C13.6498 11.8194 13.5078 11.7718 13.3625 11.7751H6.63125C6.48591 11.7718 6.34399 11.8194 6.22991 11.9095C6.11584 11.9996 6.03675 12.1267 6.00625 12.2688L5.05625 16.8001C5.0364 16.8924 5.03772 16.988 5.06011 17.0797C5.0825 17.1714 5.12537 17.2568 5.18552 17.3296C5.24566 17.4024 5.32151 17.4606 5.40737 17.4999C5.49323 17.5391 5.58687 17.5584 5.68125 17.5563H14.3375C14.4319 17.5584 14.5255 17.5391 14.6114 17.4999C14.6972 17.4606 14.7731 17.4024 14.8332 17.3296C14.8934 17.2568 14.9363 17.1714 14.9586 17.0797C14.981 16.988 14.9824 16.8924 14.9625 16.8001L13.9875 12.2688Z" fill="#7EB338"/>
<path d="M17.4 6.875H2.6C2.0762 6.875 1.57385 7.08308 1.20346 7.45346C0.83308 7.82385 0.625 8.3262 0.625 8.85V13.75C0.625 13.9158 0.690848 14.0747 0.808058 14.1919C0.925268 14.3092 1.08424 14.375 1.25 14.375H4.425L5 11.1375C5.02662 10.9919 5.10405 10.8605 5.21851 10.7666C5.33296 10.6728 5.47701 10.6226 5.625 10.625H14.375C14.523 10.6226 14.667 10.6728 14.7815 10.7666C14.8959 10.8605 14.9734 10.9919 15 11.1375L15.575 14.375H18.75C18.9158 14.375 19.0747 14.3092 19.1919 14.1919C19.3092 14.0747 19.375 13.9158 19.375 13.75V8.85C19.375 8.3262 19.1669 7.82385 18.7965 7.45346C18.4262 7.08308 17.9238 6.875 17.4 6.875Z" fill="#7EB338"/>
<path d="M15 3.125C15 2.95924 14.9342 2.80027 14.8169 2.68306C14.6997 2.56585 14.5408 2.5 14.375 2.5H5.625C5.45924 2.5 5.30027 2.56585 5.18306 2.68306C5.06585 2.80027 5 2.95924 5 3.125V6.25H15V3.125Z" fill="#7EB338"/>
</svg>
