<svg width="17" height="17" viewBox="0 0 17 17" fill="none" xmlns="http://www.w3.org/2000/svg">
<path d="M14.875 3.18751H8.5L7.735 1.64689C7.64561 1.47028 7.5088 1.32206 7.3399 1.21884C7.171 1.11562 6.97669 1.06149 6.77875 1.06251H2.125C1.84346 1.06333 1.57368 1.17553 1.3746 1.37461C1.17552 1.57369 1.06331 1.84347 1.0625 2.12501V12.75C1.06331 13.0316 1.17552 13.3013 1.3746 13.5004C1.57368 13.6995 1.84346 13.8117 2.125 13.8125H8.31215C8.08894 13.3106 7.97202 12.768 7.96875 12.2188C7.96567 11.2739 8.27858 10.355 8.85771 9.60839C9.43684 8.86175 10.249 8.33015 11.1649 8.0981C12.0809 7.86605 13.0482 7.94688 13.9129 8.32773C14.7777 8.70859 15.4903 9.36761 15.9375 10.2V4.25001C15.9367 3.96847 15.8245 3.69869 15.6254 3.49961C15.4263 3.30053 15.1565 3.18833 14.875 3.18751Z" fill="#7EB338"/>
<path d="M12.2187 9.03126C11.3741 9.03373 10.5648 9.37034 9.96753 9.96758C9.37029 10.5648 9.03367 11.3741 9.03121 12.2188C9.02568 12.6878 9.13512 13.1511 9.34996 13.5681C9.59302 14.0834 9.97004 14.5238 10.4416 14.8435C10.9131 15.1632 11.4619 15.3503 12.0305 15.3854C12.5991 15.4204 13.1667 15.302 13.6739 15.0426C14.1812 14.7832 14.6094 14.3924 14.9138 13.9109C15.2183 13.4294 15.3878 12.8749 15.4047 12.3055C15.4216 11.736 15.2852 11.1725 15.0097 10.6738C14.7343 10.1751 14.3299 9.75959 13.839 9.47064C13.348 9.18169 12.7884 9.02995 12.2187 9.03126ZM13.8125 12.75H12.75V13.8125C12.75 13.9534 12.694 14.0885 12.5944 14.1882C12.4947 14.2878 12.3596 14.3438 12.2187 14.3438C12.0778 14.3438 11.9427 14.2878 11.8431 14.1882C11.7434 14.0885 11.6875 13.9534 11.6875 13.8125V12.75H10.625C10.4841 12.75 10.3489 12.694 10.2493 12.5944C10.1497 12.4948 10.0937 12.3597 10.0937 12.2188C10.0937 12.0779 10.1497 11.9427 10.2493 11.8431C10.3489 11.7435 10.4841 11.6875 10.625 11.6875H11.6875V10.625C11.6875 10.4841 11.7434 10.349 11.8431 10.2494C11.9427 10.1497 12.0778 10.0938 12.2187 10.0938C12.3596 10.0938 12.4947 10.1497 12.5944 10.2494C12.694 10.349 12.75 10.4841 12.75 10.625V11.6875H13.8125C13.9534 11.6875 14.0885 11.7435 14.1881 11.8431C14.2877 11.9427 14.3437 12.0779 14.3437 12.2188C14.3437 12.3597 14.2877 12.4948 14.1881 12.5944C14.0885 12.694 13.9534 12.75 13.8125 12.75Z" fill="#7EB338"/>
</svg>
