<svg width="264" height="264" viewBox="0 0 264 264" fill="none" xmlns="http://www.w3.org/2000/svg">
<g opacity="0.25">
<mask id="mask0_72_235" style="mask-type:luminance" maskUnits="userSpaceOnUse" x="0" y="0" width="264" height="264">
<path d="M0 132.006C0 204.917 58.9542 264 131.668 264C204.394 264 263.337 204.906 263.337 132.006C263.337 59.1051 204.383 0 131.668 0C58.9542 0 0 59.1051 0 132.006Z" fill="white"/>
</mask>
<g mask="url(#mask0_72_235)">
<path d="M-1.47754 -13.7621V81.1134C7.40914 87.0936 29.2951 98.1585 64.4449 93.1401C111.679 86.4193 145.682 50.1736 194.14 49.6541C227.371 49.2893 251.407 62.7861 263.271 71.3197V-13.751L-1.47754 -13.7621Z" fill="#7EB338"/>
</g>
<mask id="mask1_72_235" style="mask-type:luminance" maskUnits="userSpaceOnUse" x="0" y="0" width="264" height="264">
<path d="M0 132.006C0 204.917 58.9542 264 131.668 264C204.394 264 263.337 204.906 263.337 132.006C263.337 59.1051 204.383 0 131.668 0C58.9542 0 0 59.1051 0 132.006Z" fill="white"/>
</mask>
<g mask="url(#mask1_72_235)">
<path d="M-1.47754 159.309V229.545H-0.683692C6.79171 229.512 61.931 232.386 95.3167 204.95C131.205 175.425 156.377 99.3413 209.278 77.5983C229.323 69.3632 248.629 74.1274 263.271 81.2903V76.1281C254.373 70.0595 230.557 57.8561 193.533 68.2688C145.682 81.7325 124.888 129.353 81.4575 150.068C45.8005 167.08 10.1435 161.752 -1.47754 159.309Z" fill="#7EB338"/>
</g>
<mask id="mask2_72_235" style="mask-type:luminance" maskUnits="userSpaceOnUse" x="0" y="0" width="264" height="264">
<path d="M0 132.006C0 204.917 58.9542 264 131.668 264C204.394 264 263.337 204.906 263.337 132.006C263.337 59.1051 204.383 0 131.668 0C58.9542 0 0 59.1051 0 132.006Z" fill="white"/>
</mask>
<g mask="url(#mask2_72_235)">
<path d="M172.122 156.291C167.05 187.761 169.288 247.497 174.492 265.382H263.26V85.2476C245.277 80.207 185.97 70.4906 172.122 156.291Z" fill="#7EB338"/>
</g>
</g>
</svg>
