<svg width="253" height="264" viewBox="0 0 253 264" fill="none" xmlns="http://www.w3.org/2000/svg">
<g opacity="0.25">
<mask id="mask0_13_2438" style="mask-type:luminance" maskUnits="userSpaceOnUse" x="-11" y="0" width="264" height="264">
<path d="M-11 132.006C-11 204.917 47.9542 264 120.668 264C193.394 264 252.337 204.906 252.337 132.006C252.337 59.1051 193.383 0 120.668 0C47.9542 0 -11 59.1051 -11 132.006Z" fill="white"/>
</mask>
<g mask="url(#mask0_13_2438)">
<path d="M-12.4775 -13.7621V81.1134C-3.59083 87.0936 18.2951 98.1585 53.4449 93.1401C100.679 86.4193 134.682 50.1736 183.14 49.6541C216.371 49.2893 240.407 62.7861 252.271 71.3197V-13.751L-12.4775 -13.7621Z" fill="#7EB338"/>
</g>
<mask id="mask1_13_2438" style="mask-type:luminance" maskUnits="userSpaceOnUse" x="-11" y="0" width="264" height="264">
<path d="M-11 132.006C-11 204.917 47.9542 264 120.668 264C193.394 264 252.337 204.906 252.337 132.006C252.337 59.1051 193.383 0 120.668 0C47.9542 0 -11 59.1051 -11 132.006Z" fill="white"/>
</mask>
<g mask="url(#mask1_13_2438)">
<path d="M-12.4775 159.309V229.545H-11.6837C-4.20826 229.512 50.931 232.386 84.3167 204.95C120.205 175.425 145.377 99.3413 198.278 77.5983C218.323 69.3632 237.629 74.1274 252.271 81.2903V76.1282C243.373 70.0596 219.557 57.8561 182.533 68.2689C134.682 81.7325 113.888 129.353 70.4575 150.068C34.8005 167.08 -0.856463 161.752 -12.4775 159.309Z" fill="#7EB338"/>
</g>
<mask id="mask2_13_2438" style="mask-type:luminance" maskUnits="userSpaceOnUse" x="-11" y="0" width="264" height="264">
<path d="M-11 132.006C-11 204.917 47.9542 264 120.668 264C193.394 264 252.337 204.906 252.337 132.006C252.337 59.1051 193.383 0 120.668 0C47.9542 0 -11 59.1051 -11 132.006Z" fill="white"/>
</mask>
<g mask="url(#mask2_13_2438)">
<path d="M161.122 156.291C156.05 187.761 158.288 247.497 163.492 265.382H252.26V85.2476C234.277 80.207 174.97 70.4906 161.122 156.291Z" fill="#7EB338"/>
</g>
</g>
</svg>
