<svg width="1600" height="395" viewBox="0 0 1600 395" fill="none" xmlns="http://www.w3.org/2000/svg">
<g clip-path="url(#clip0_54_228)">
<path class="bigline" opacity="0.6" d="M1032.5 62.9997C1487 -94 1600 93 1600 85.4998V103C1413 17.1601 1255 67.4996 1049.5 186C532.437 484.16 81.5 380 0 364.5V103C204.5 284.5 661.9 191.018 1032.5 62.9997Z" fill="url(#paint0_linear_54_228)"/>
<path class="bigCircle" opacity="0.6" d="M1098 349.5C1243.2 84.3 1493.17 103.667 1600 146.5V349.5H1098Z" fill="url(#paint1_linear_54_228)"/>
<path d="M649 349.5L1600 349V396H0V363C297 426 539.5 377 649 349.5Z" fill="white"/>
</g>
<defs>
<linearGradient id="paint0_linear_54_228" x1="800" y1="103.464" x2="800" y2="348.014" gradientUnits="userSpaceOnUse">
<stop stop-color="#426932"/>
<stop offset="1" stop-color="#7EB338"/>
</linearGradient>
<linearGradient id="paint1_linear_54_228" x1="1349" y1="180.991" x2="1349" y2="322.515" gradientUnits="userSpaceOnUse">
<stop stop-color="#426932"/>
<stop offset="1" stop-color="#7EB338"/>
</linearGradient>
<clipPath id="clip0_54_228">
<rect width="1600" height="395" fill="white"/>
</clipPath>


<style>

.bigline{
    animation: lineFade 2s ease-in-out forwards;
    opacity: 0;
    transform: translate(-5%, 5%) rotate(-1deg);
}

.bigCircle{
    animation: circleFade 2s 0.5s ease-in-out forwards;
    opacity: 0;
    transform: translate(10%, 15%);
}
@keyframes lineFade {
    to{
        transform: translate(0%, 0%) rotate(0deg);
        opacity: 0.6;
    }
}

@keyframes circleFade {
    to{
        transform: translate(0%, 0%);
        opacity: 0.6;
    }
}

</style>
</defs>
</svg>
