<svg width="22" height="23" viewBox="0 0 22 23" fill="none" xmlns="http://www.w3.org/2000/svg">
<g clip-path="url(#clip0_14_3338)">
<path d="M11.0885 20.4027L11.8764 19.3962C12.5113 18.576 18.1187 11.2915 18.1187 7.66793C18.1187 3.31461 15.326 0.500977 11.0002 0.500977C6.67437 0.500977 3.8817 3.31461 3.8817 7.66793C3.8817 11.2966 9.48869 18.5811 10.1295 19.3962L10.9125 20.4027C7.63241 20.4113 4.98722 20.8771 4.98722 21.4515C4.98722 22.0311 7.68088 22.501 11.0036 22.501C14.3264 22.501 17.02 22.0311 17.02 21.4515C17.02 20.8767 14.3717 20.4106 11.0885 20.4027ZM11.0002 9.90647C9.72691 9.90647 8.69496 8.90201 8.69496 7.66312C8.69496 6.42422 9.72691 5.41977 11.0002 5.41977C12.2735 5.41977 13.3054 6.42422 13.3054 7.66312C13.3054 8.90201 12.2735 9.90647 11.0002 9.90647Z" fill="#7EB338"/>
</g>
<defs>
<clipPath id="clip0_14_3338">
<rect width="22" height="22" fill="white" transform="translate(0 0.5)"/>
</clipPath>
</defs>
</svg>
