<svg width="136" height="61" viewBox="0 0 136 61" fill="none" xmlns="http://www.w3.org/2000/svg">
<path d="M35.9842 50.021V24.1292H50.483V26.0527H38.4165V34.1776H49.6653V36.2119H38.4165V48.1725H49.6653V50.021H35.9842Z" fill="black"/>
<path d="M35.9842 50.021V24.1292H50.483V26.0527H38.4165V34.1776H49.6653V36.2119H38.4165V48.1725H49.6653V50.021H35.9842Z" fill="white" stroke="white" stroke-width="0.545"/>
<path d="M61.4927 50.0169L56.8308 43.7904L52.1661 50.0169H49.6653L55.5797 42.1471L49.6653 34.1776H52.0528L56.8308 40.5011L87.0236 0.389664H89.4112L58.0414 42.1471L63.9949 50.0169H61.4927Z" fill="black"/>
<path d="M61.4927 50.0169L56.8308 43.7904L52.1661 50.0169H49.6653L55.5797 42.1471L49.6653 34.1776H52.0528L56.8308 40.5011L87.0236 0.389664H89.4112L58.0414 42.1471L63.9949 50.0169H61.4927Z" fill="white" stroke="white" stroke-width="0.545"/>
<path d="M78.0967 39.9325C78.0967 36.5503 75.4436 35.5379 73.172 35.5379C70.783 35.5379 68.2026 36.6127 68.0516 39.7744V44.7695C68.0516 47.6455 70.291 48.7854 73.172 48.7854C75.7497 48.7854 78.0967 47.5207 78.0967 44.7695V39.9325ZM66.0918 60L65.931 34.1775H68.0516L67.8629 35.7917C69.2677 34.527 71.2751 33.9252 73.0182 33.9252C77.908 33.9252 80.2201 36.6127 80.2201 40.0587V44.4519C80.2201 48.4069 77.265 50.3954 73.1706 50.3954C71.1605 50.3954 69.4551 50.0502 68.0502 48.6911L68.2137 59.3039L66.0918 60Z" fill="black"/>
<path d="M78.0967 39.9325C78.0967 36.5503 75.4436 35.5379 73.172 35.5379C70.783 35.5379 68.2026 36.6127 68.0516 39.7744V44.7695C68.0516 47.6455 70.291 48.7854 73.172 48.7854C75.7497 48.7854 78.0967 47.5207 78.0967 44.7695V39.9325ZM66.0918 60L65.931 34.1775H68.0516L67.8629 35.7917C69.2677 34.527 71.2751 33.9252 73.0182 33.9252C77.908 33.9252 80.2201 36.6127 80.2201 40.0587V44.4519C80.2201 48.4069 77.265 50.3954 73.1706 50.3954C71.1605 50.3954 69.4551 50.0502 68.0502 48.6911L68.2137 59.3039L66.0918 60Z" fill="white" stroke="white" stroke-width="0.545"/>
<path d="M82.2722 50.0169V34.1775H84.3942L84.2796 35.2855C86.5553 33.5147 89.7397 33.8309 91.7484 34.1775L91.1809 35.7903C88.8283 35.1275 84.3956 35.4117 84.3956 37.625V50.0183L82.2722 50.0169Z" fill="black"/>
<path d="M82.2722 50.0169V34.1775H84.3942L84.2796 35.2855C86.5553 33.5147 89.7397 33.8309 91.7484 34.1775L91.1809 35.7903C88.8283 35.1275 84.3956 35.4117 84.3956 37.625V50.0183L82.2722 50.0169Z" fill="white" stroke="white" stroke-width="0.545"/>
<path d="M103.844 38.984C103.844 36.0122 100.772 35.4104 99.2551 35.4104C96.7179 35.4104 94.4422 36.4532 94.4422 39.3293V42.1138L103.846 41.7339L103.844 38.984ZM105.019 48.9103C103.236 49.8255 100.923 50.3663 98.763 50.3955C95.0083 50.4911 92.3174 49.0683 92.3174 45.779V39.3015C92.3174 35.8222 95.1816 33.6769 99.3138 33.6769C103.521 33.6769 105.966 35.8846 105.966 39.2045V43.3148L94.4422 43.8514V45.779C94.4422 49.3235 99.5975 49.5731 104.185 47.5512L105.019 48.9103Z" fill="black"/>
<path d="M103.844 38.984C103.844 36.0122 100.772 35.4104 99.2551 35.4104C96.7179 35.4104 94.4422 36.4532 94.4422 39.3293V42.1138L103.846 41.7339L103.844 38.984ZM105.019 48.9103C103.236 49.8255 100.923 50.3663 98.763 50.3955C95.0083 50.4911 92.3174 49.0683 92.3174 45.779V39.3015C92.3174 35.8222 95.1816 33.6769 99.3138 33.6769C103.521 33.6769 105.966 35.8846 105.966 39.2045V43.3148L94.4422 43.8514V45.779C94.4422 49.3235 99.5975 49.5731 104.185 47.5512L105.019 48.9103Z" fill="white" stroke="white" stroke-width="0.545"/>
<path d="M109.531 46.0009C109.873 48.0574 112.373 48.8479 114.534 48.8479C116.353 48.8479 119.046 48.2446 119.046 46.098C119.046 41.8934 108.66 43.6005 107.978 38.4792C107.712 36.4865 109.457 33.7976 114.458 33.7976C117.151 33.7976 118.707 34.7156 118.707 34.7156L117.985 36.1703C117.985 36.1703 116.62 35.3494 114.458 35.3494C112.107 35.3494 109.834 36.327 110.061 38.3211C110.48 41.9572 121.168 40.343 121.168 46.0675C121.168 48.4388 119.122 50.4925 114.534 50.4925C110.022 50.4925 107.634 48.375 107.522 46.0023L109.531 46.0009Z" fill="black"/>
<path d="M109.531 46.0009C109.873 48.0574 112.373 48.8479 114.534 48.8479C116.353 48.8479 119.046 48.2446 119.046 46.098C119.046 41.8934 108.66 43.6005 107.978 38.4792C107.712 36.4865 109.457 33.7976 114.458 33.7976C117.151 33.7976 118.707 34.7156 118.707 34.7156L117.985 36.1703C117.985 36.1703 116.62 35.3494 114.458 35.3494C112.107 35.3494 109.834 36.327 110.061 38.3211C110.48 41.9572 121.168 40.343 121.168 46.0675C121.168 48.4388 119.122 50.4925 114.534 50.4925C110.022 50.4925 107.634 48.375 107.522 46.0023L109.531 46.0009Z" fill="white" stroke="white" stroke-width="0.545"/>
<path d="M124.09 46.0009C124.43 48.0574 126.932 48.8479 129.093 48.8479C130.913 48.8479 133.605 48.2446 133.605 46.098C133.605 41.8934 123.219 43.6005 122.534 38.4792C122.27 36.4865 124.013 33.7976 129.017 33.7976C131.711 33.7976 133.263 34.7156 133.263 34.7156L132.543 36.1703C132.543 36.1703 131.176 35.3494 129.017 35.3494C126.666 35.3494 124.392 36.327 124.62 38.3211C125.036 41.9572 135.729 40.343 135.729 46.0675C135.729 48.4388 133.679 50.4925 129.093 50.4925C124.579 50.4925 122.193 48.375 122.08 46.0023L124.09 46.0009Z" fill="black"/>
<path d="M124.09 46.0009C124.43 48.0574 126.932 48.8479 129.093 48.8479C130.913 48.8479 133.605 48.2446 133.605 46.098C133.605 41.8934 123.219 43.6005 122.534 38.4792C122.27 36.4865 124.013 33.7976 129.017 33.7976C131.711 33.7976 133.263 34.7156 133.263 34.7156L132.543 36.1703C132.543 36.1703 131.176 35.3494 129.017 35.3494C126.666 35.3494 124.392 36.327 124.62 38.3211C125.036 41.9572 135.729 40.343 135.729 46.0675C135.729 48.4388 133.679 50.4925 129.093 50.4925C124.579 50.4925 122.193 48.375 122.08 46.0023L124.09 46.0009Z" fill="white" stroke="white" stroke-width="0.545"/>
<path d="M54.6613 33.236L50.6172 33.0349L50.6815 14.0976L54.7242 14.2973L54.6613 33.236Z" fill="#426932"/>
<path d="M61.6451 7.43845L61.5584 33.2554L54.6613 33.2359L54.7242 14.2973L49.8135 17.7599L46.7535 13.0894L55.5559 7.42181L61.6451 7.43845Z" fill="#7EB338"/>
<path d="M55.5559 7.42182L51.5147 7.22213L42.7108 12.8897L45.7708 17.5575L49.8135 17.76L46.7535 13.0894L55.5559 7.42182Z" fill="#426932"/>
<mask id="mask0_1_528" style="mask-type:luminance" maskUnits="userSpaceOnUse" x="71" y="28" width="6" height="2">
<path d="M75.9691 29.0106C76.0139 29.012 76.0642 29.0148 76.1117 29.0148L72.0677 28.8151C72.0201 28.8151 71.9726 28.8137 71.9223 28.8123L75.9691 29.0106Z" fill="white"/>
</mask>
<g mask="url(#mask0_1_528)">
<path d="M75.9694 29.0106L71.9253 28.8123C71.9449 28.8123 71.9659 28.8123 71.9826 28.8123L76.0281 29.0134C76.0085 29.0134 75.9876 29.0106 75.9694 29.0106Z" fill="#568226"/>
</g>
<mask id="mask1_1_528" style="mask-type:luminance" maskUnits="userSpaceOnUse" x="71" y="28" width="6" height="2">
<path d="M75.9691 29.0106C76.0139 29.012 76.0642 29.0148 76.1117 29.0148L72.0677 28.8151C72.0201 28.8151 71.9726 28.8137 71.9223 28.8123L75.9691 29.0106Z" fill="white"/>
</mask>
<g mask="url(#mask1_1_528)">
<path d="M76.0279 29.0134L71.9824 28.8123C72.0118 28.8151 72.0397 28.8151 72.0691 28.8151L76.1118 29.0148C76.0852 29.0148 76.0544 29.0148 76.0279 29.0134Z" fill="#547F24"/>
</g>
<mask id="mask2_1_528" style="mask-type:luminance" maskUnits="userSpaceOnUse" x="72" y="11" width="8" height="19">
<path d="M75.4687 20.1368C75.4534 24.2416 75.1766 28.8234 72.0677 28.8164L76.1118 29.0161C79.222 29.0258 79.4974 24.4427 79.5128 20.3365C79.5254 16.2928 79.2905 11.779 76.3144 11.6334L72.269 11.4351C75.2437 11.5793 75.4827 16.0945 75.4687 20.1368Z" fill="white"/>
</mask>
<g mask="url(#mask2_1_528)">
<path d="M76.1118 29.0147L72.0691 28.815C72.2354 28.815 72.3906 28.8026 72.5458 28.7762L76.587 28.9759C76.4375 29.0036 76.2767 29.0161 76.1118 29.0147Z" fill="#547F24"/>
</g>
<mask id="mask3_1_528" style="mask-type:luminance" maskUnits="userSpaceOnUse" x="72" y="11" width="8" height="19">
<path d="M75.4687 20.1368C75.4534 24.2416 75.1766 28.8234 72.0677 28.8164L76.1118 29.0161C79.222 29.0258 79.4974 24.4427 79.5128 20.3365C79.5254 16.2928 79.2905 11.779 76.3144 11.6334L72.269 11.4351C75.2437 11.5793 75.4827 16.0945 75.4687 20.1368Z" fill="white"/>
</mask>
<g mask="url(#mask3_1_528)">
<path d="M76.587 28.9773L72.5458 28.7776C72.7275 28.7471 72.898 28.6986 73.0588 28.6348L77.1015 28.8345C76.9435 28.8982 76.7702 28.9468 76.587 28.9773Z" fill="#517C23"/>
</g>
<mask id="mask4_1_528" style="mask-type:luminance" maskUnits="userSpaceOnUse" x="72" y="11" width="8" height="19">
<path d="M75.4687 20.1368C75.4534 24.2416 75.1766 28.8234 72.0677 28.8164L76.1118 29.0161C79.222 29.0258 79.4974 24.4427 79.5128 20.3365C79.5254 16.2928 79.2905 11.779 76.3144 11.6334L72.269 11.4351C75.2437 11.5793 75.4827 16.0945 75.4687 20.1368Z" fill="white"/>
</mask>
<g mask="url(#mask4_1_528)">
<path d="M77.1029 28.8358L73.0588 28.6348C75.2395 27.7459 75.4548 23.7562 75.4673 20.1368C75.4827 16.0931 75.2437 11.5793 72.2676 11.4323L76.3145 11.632C79.2891 11.779 79.5254 16.2914 79.5114 20.3351C79.4988 23.9545 79.2849 27.9442 77.1029 28.8358Z" fill="#426932"/>
</g>
<path d="M66.0918 20.2977C66.0932 20.0023 66.0974 19.7056 66.1044 19.4102C66.1058 19.3464 66.1086 19.2798 66.11 19.2133C66.1169 18.9234 66.1309 18.6336 66.1449 18.3465C66.1463 18.298 66.1505 18.2481 66.1533 18.1996C66.1687 17.9402 66.1868 17.6823 66.2092 17.4244C66.2162 17.3717 66.219 17.3176 66.2246 17.2635C66.2525 16.982 66.2805 16.7046 66.3168 16.4259C66.3238 16.3635 66.3336 16.3011 66.3406 16.2373C66.3784 15.9572 66.4217 15.6785 66.4692 15.4025C66.4692 15.397 66.4706 15.3914 66.4706 15.3859C66.5195 15.1085 66.5769 14.8367 66.6384 14.5677C66.6523 14.5094 66.6663 14.4484 66.6775 14.3902C66.7418 14.1253 66.8089 13.866 66.8844 13.6094C66.8956 13.5678 66.9109 13.5304 66.9207 13.4916C66.992 13.2531 67.0703 13.0242 67.1542 12.7968C67.1668 12.7566 67.1807 12.715 67.1961 12.6762C67.2898 12.4307 67.3904 12.1908 67.4953 11.9565C67.5176 11.9093 67.54 11.8622 67.5624 11.815C67.7916 11.338 68.0488 10.8887 68.348 10.4643C68.3759 10.4227 68.4039 10.3839 68.4332 10.3437C68.5828 10.1398 68.7408 9.93875 68.9085 9.75016C68.9309 9.72519 68.9546 9.70162 68.9756 9.67805C69.135 9.50193 69.3055 9.33136 69.483 9.1705C69.5096 9.14554 69.5348 9.12058 69.5613 9.09561C69.7542 8.92505 69.9569 8.76557 70.1694 8.61303C70.2099 8.58668 70.2533 8.55756 70.2924 8.52983C70.7313 8.22752 71.2178 7.96265 71.7518 7.74355C71.7993 7.72274 71.8524 7.70194 71.9042 7.68114C72.1768 7.57298 72.4619 7.4759 72.7653 7.3927C72.81 7.38022 72.8575 7.36913 72.9051 7.35803C73.207 7.27621 73.5173 7.20688 73.8444 7.15279C74.5601 7.03076 75.336 6.9642 76.1859 6.96697L72.1418 6.76728C71.3143 6.76589 70.5566 6.82552 69.8563 6.94062H69.8465C69.8157 6.94478 69.7892 6.95449 69.7584 6.95865C69.4481 7.01412 69.1489 7.0793 68.8638 7.15557C68.8121 7.16805 68.7659 7.17914 68.7184 7.19301C68.4193 7.27483 68.1327 7.37467 67.8573 7.48145C67.8363 7.48977 67.8112 7.49532 67.7902 7.50503C67.7623 7.51612 67.7357 7.53137 67.7077 7.54247C67.1765 7.76157 66.6887 8.02367 66.2497 8.32875C66.2078 8.35787 66.1645 8.3856 66.1225 8.41473C65.9143 8.56588 65.7116 8.72536 65.5201 8.89315C65.4921 8.9195 65.4641 8.94585 65.4348 8.97219C65.26 9.13306 65.0937 9.30085 64.9343 9.47419C64.9106 9.50054 64.8854 9.5255 64.8631 9.55047C64.6967 9.73906 64.5401 9.93598 64.3906 10.1412C64.3598 10.1828 64.3319 10.2244 64.3011 10.266C64.0061 10.6876 63.7447 11.1383 63.5169 11.6167C63.4973 11.6625 63.4736 11.7082 63.4526 11.754C63.345 11.9884 63.2429 12.2296 63.1507 12.4765C63.1353 12.5125 63.1241 12.5486 63.1101 12.5874C63.0234 12.8204 62.9466 13.0561 62.8739 13.296C62.8627 13.3335 62.8515 13.3682 62.8403 13.4042C62.7634 13.6649 62.6935 13.927 62.632 14.1947C62.6181 14.2487 62.6069 14.3028 62.5943 14.3569C62.4699 14.906 62.3692 15.4705 62.2923 16.0459C62.2854 16.1028 62.2784 16.1597 62.2714 16.2151C62.235 16.4966 62.2029 16.7823 62.1763 17.0694C62.1721 17.1151 62.1693 17.1609 62.1651 17.2066C62.1428 17.4701 62.1232 17.7378 62.1064 18.0054C62.105 18.0512 62.1022 18.0969 62.0966 18.1413C62.0841 18.4311 62.0715 18.7237 62.0631 19.0163C62.0631 19.0801 62.0603 19.1411 62.0575 19.2036C62.0505 19.5017 62.0463 19.7985 62.0435 20.0966C62.0212 26.5935 63.3967 33.0654 71.3213 33.4592L75.3667 33.6561C67.4407 33.2651 66.0694 26.7918 66.0918 20.2977Z" fill="#426932"/>
<path d="M76.1118 29.0147C79.2249 29.0245 79.4974 24.4413 79.5128 20.3351C79.5268 16.2276 79.2822 11.6375 76.1705 11.6264C73.0504 11.6209 72.775 16.2096 72.7625 20.3157C72.7513 24.4233 72.9931 29.0064 76.1118 29.0147ZM76.1859 6.96838C84.7507 6.99195 86.2142 13.6566 86.1919 20.3532C86.1681 27.0414 84.6598 33.6991 76.0964 33.677C67.5218 33.6506 66.068 26.9859 66.0904 20.2963C66.1155 13.5998 67.6113 6.9448 76.1859 6.96838Z" fill="#7EB338"/>
<path d="M108.271 23.673L111.937 23.6841L107.893 23.483L104.226 23.4747L108.271 23.673Z" fill="#35582A"/>
<path d="M101.782 33.236L97.7411 33.0363L97.7565 28.1133L101.799 28.3144L101.782 33.236Z" fill="#426932"/>
<path d="M102.259 23.6578L98.2164 23.4553L98.2527 12.5486L102.295 12.7469L102.259 23.6578Z" fill="#426932"/>
<path d="M95.1369 23.6369L102.258 23.6577L98.2164 23.4567L91.0928 23.4373L95.1369 23.6369Z" fill="#547F24"/>
<path d="M100.681 7.41766L96.6382 7.21519L86.2058 22.608L86.2632 28.087L90.2289 28.2839L90.2471 22.8548L100.681 7.41766Z" fill="#426932"/>
<path d="M102.259 23.6577L102.295 12.7497H102.224L95.1369 23.6369L102.259 23.6577ZM108.271 23.6744L111.937 23.6841L111.921 28.3435L108.252 28.3352L108.238 33.2554L101.784 33.2359L101.798 28.3144L90.229 28.2839L90.2485 22.8104L100.682 7.41765L108.326 7.44122L108.271 23.6744Z" fill="#7EB338"/>
<mask id="mask5_1_528" style="mask-type:luminance" maskUnits="userSpaceOnUse" x="121" y="28" width="5" height="2">
<path d="M125.776 29.0106C125.823 29.0147 125.871 29.0148 125.918 29.0148L121.877 28.8151C121.829 28.8151 121.78 28.8137 121.732 28.8123L125.776 29.0106Z" fill="white"/>
</mask>
<g mask="url(#mask5_1_528)">
<path d="M125.776 29.0106L121.732 28.8123C121.751 28.8123 121.771 28.8123 121.792 28.8123L125.834 29.0148C125.815 29.0134 125.798 29.0134 125.776 29.0106Z" fill="#568226"/>
</g>
<mask id="mask6_1_528" style="mask-type:luminance" maskUnits="userSpaceOnUse" x="121" y="28" width="5" height="2">
<path d="M125.776 29.0106C125.823 29.0147 125.871 29.0148 125.918 29.0148L121.877 28.8151C121.829 28.8151 121.78 28.8137 121.732 28.8123L125.776 29.0106Z" fill="white"/>
</mask>
<g mask="url(#mask6_1_528)">
<path d="M125.834 29.0148L121.792 28.8123C121.82 28.8151 121.846 28.8151 121.876 28.8151L125.918 29.0148H125.834Z" fill="#547F24"/>
</g>
<mask id="mask7_1_528" style="mask-type:luminance" maskUnits="userSpaceOnUse" x="121" y="11" width="9" height="19">
<path d="M125.277 20.1368C125.261 24.2416 124.986 28.8234 121.877 28.8164L125.918 29.0161C129.033 29.0258 129.305 24.4427 129.322 20.3365C129.333 16.2928 129.098 11.779 126.119 11.6334L122.078 11.4351C125.054 11.5793 125.291 16.0945 125.277 20.1368Z" fill="white"/>
</mask>
<g mask="url(#mask7_1_528)">
<path d="M125.918 29.0147L121.877 28.8151C122.042 28.8151 122.2 28.8026 122.352 28.7776L126.396 28.9773C126.244 29.0037 126.086 29.0161 125.918 29.0147Z" fill="#547F24"/>
</g>
<mask id="mask8_1_528" style="mask-type:luminance" maskUnits="userSpaceOnUse" x="121" y="11" width="9" height="19">
<path d="M125.277 20.1368C125.261 24.2416 124.986 28.8234 121.877 28.8164L125.918 29.0161C129.033 29.0258 129.305 24.4427 129.322 20.3365C129.333 16.2928 129.098 11.779 126.119 11.6334L122.078 11.4351C125.054 11.5793 125.291 16.0945 125.277 20.1368Z" fill="white"/>
</mask>
<g mask="url(#mask8_1_528)">
<path d="M126.121 11.632L122.078 11.4323C125.052 11.5793 125.288 16.0931 125.275 20.1368C125.261 23.7562 125.047 27.7459 122.864 28.6348C122.706 28.6999 122.533 28.7499 122.349 28.779L126.396 28.9773C126.578 28.9482 126.749 28.8996 126.911 28.8345C129.091 27.9442 129.307 23.9545 129.318 20.3351C129.333 16.2928 129.096 11.7804 126.121 11.632Z" fill="#426932"/>
</g>
<path d="M125.177 33.6589L121.132 33.4578C113.204 33.0654 111.836 26.5935 111.856 20.0966C111.872 14.7452 112.835 9.41733 117.599 7.50779L121.643 7.70748C116.877 9.61841 115.916 14.9449 115.9 20.2991C115.876 26.7918 117.249 33.2651 125.177 33.6589Z" fill="#426932"/>
<path d="M123.721 7.14169C124.034 7.08899 124.361 7.05155 124.699 7.02382C124.772 7.01688 124.845 7.01272 124.92 7.00718C125.265 6.9836 125.619 6.96835 125.992 6.96835C126.244 6.96973 126.486 6.97528 126.721 6.98638L122.674 6.78668C122.577 6.78252 122.479 6.77698 122.377 6.77282C122.236 6.77143 122.095 6.76866 121.95 6.76866C121.578 6.76727 121.227 6.78252 120.886 6.8061C120.803 6.81026 120.725 6.81719 120.644 6.82413C120.307 6.85325 119.981 6.8893 119.668 6.94061C119.664 6.942 119.66 6.942 119.656 6.942H119.659C113.102 8.03059 111.872 14.0476 111.854 20.0952C111.833 26.5921 113.203 33.064 121.13 33.4564L125.176 33.6575C117.247 33.2651 115.876 26.7918 115.898 20.2991C115.921 14.2432 117.149 8.22196 123.721 7.14169Z" fill="#426932"/>
<path d="M125.918 29.0147C129.033 29.0245 129.307 24.4413 129.321 20.3351C129.333 16.2276 129.09 11.6375 125.978 11.6292C122.86 11.6209 122.584 16.2096 122.57 20.3171C122.556 24.4233 122.801 29.0064 125.918 29.0147ZM125.992 6.96838C134.56 6.99195 136.023 13.6594 136 20.3573C135.976 27.0414 134.468 33.7019 125.904 33.677C117.331 33.6506 115.874 26.9859 115.9 20.2991C115.922 13.6025 117.423 6.9448 125.992 6.96838Z" fill="#7EB338"/>
<path d="M65.931 31.6468L58.0414 42.1458L56.828 43.7877L55.5769 42.1458L49.6653 34.1762H52.0514L56.828 40.5011L64.48 30.2559M72.7722 19.3214L87.0222 0.391068H89.4126L72.7918 22.5095" fill="#426932"/>
<path d="M72.8226 23.0989L72.7764 21.88L88.6284 0.779347H87.2207L72.7792 19.7846L72.789 18.6475L86.8265 0H90.194L73.1105 22.7425L72.8226 23.0989ZM56.8336 44.4408L55.2652 42.3815L48.8867 33.7879H52.2458L56.828 39.8479L64.2326 29.9328L64.7274 30.5776L56.8294 41.1542L51.853 34.5672H50.4411L56.8238 43.1345L57.7227 41.9156L65.6151 31.4138L66.2469 31.8825L56.8336 44.4408Z" fill="#426932"/>
<path d="M2.53295 55.2712H1.45099V54.6278H4.27191V55.2712H3.18017V58.7686H2.53295V55.2712Z" fill="white"/>
<path d="M5.91302 54.6278V56.2669H7.54714V54.6278H8.19436V58.7686H7.54714V56.945H5.91302V58.7686H5.2672V54.6278H5.91302Z" fill="white"/>
<path d="M11.6094 56.9492H10.1807V58.1307H11.7757V58.7686H9.53491V54.6278H11.6946V55.2671H10.1807V56.3113H11.6094V56.9492Z" fill="white"/>
<path d="M16.6375 56.9492H15.2089V58.1307H16.8025V58.7686H14.5631V54.6278H16.7214V55.2671H15.2089V56.3113H16.6375V56.9492Z" fill="#7EB338"/>
<path d="M20.0064 58.7686L19.6066 57.9587C19.4347 57.6148 19.3299 57.393 19.2208 57.1655H19.2096C19.1244 57.3985 19.0251 57.6079 18.8602 57.9587L18.4883 58.7686H17.7265L18.8434 56.6788L17.7656 54.6278H18.5275L18.9329 55.4806C19.0587 55.758 19.1537 55.9618 19.2432 56.1823H19.2586C19.3536 55.9369 19.4389 55.7469 19.5605 55.4876L19.9701 54.6278H20.7319L19.629 56.6427L20.7697 58.7686H20.0064Z" fill="#7EB338"/>
<path d="M22.5156 56.6053C22.6037 56.6358 22.7253 56.6482 22.8749 56.6482C23.3725 56.6482 23.6829 56.3723 23.6829 55.88C23.6829 55.4002 23.3781 55.1839 22.9308 55.1839C22.7253 55.1839 22.5855 55.2047 22.5156 55.2213V56.6053ZM21.874 54.6777C22.1131 54.6347 22.45 54.5903 22.9266 54.5903C23.4089 54.5903 23.7528 54.7193 23.975 54.9342C24.1791 55.1367 24.3245 55.4626 24.3245 55.862C24.3245 56.2489 24.2239 56.5803 24.024 56.8022C23.7598 57.11 23.3572 57.257 22.8665 57.257C22.7323 57.257 22.6121 57.2445 22.517 57.221V58.77H21.8754L21.874 54.6777Z" fill="#7EB338"/>
<path d="M26.1264 56.4999H26.5667C27.0196 56.4999 27.2936 56.2433 27.2936 55.837C27.2936 55.3711 26.9945 55.1783 26.5793 55.1783C26.3375 55.1783 26.1963 55.2047 26.1264 55.2227V56.4999ZM25.4848 54.6832C25.735 54.6347 26.1166 54.5917 26.522 54.5917C27.0476 54.5917 27.3943 54.6999 27.6291 54.9356C27.815 55.1131 27.9352 55.4099 27.9352 55.7663C27.9352 56.3182 27.6039 56.6732 27.2936 56.798V56.816C27.5396 56.9339 27.6906 57.2224 27.7759 57.5968C27.8947 58.114 27.9912 58.6049 28.0666 58.7714H27.404C27.3481 58.6479 27.2643 58.3304 27.1594 57.8006C27.049 57.2667 26.8784 57.0878 26.4968 57.0768H26.125V58.7727H25.4848V54.6832Z" fill="#7EB338"/>
<path d="M31.2146 56.9492H29.7874V58.1307H31.3824V58.7686H29.1416V54.6278H31.3013V55.2671H29.7874V56.3113H31.2146V56.9492Z" fill="#7EB338"/>
<path d="M32.5664 57.9074C32.7873 58.0628 33.1186 58.2042 33.4778 58.2042C33.8944 58.2042 34.1237 57.9823 34.1237 57.6384C34.1237 57.3375 33.9545 57.1517 33.4778 56.9742C32.8558 56.7481 32.4714 56.3973 32.4714 55.7511C32.4714 55.0646 32.9662 54.5543 33.7336 54.5543C34.1516 54.5543 34.4396 54.6514 34.6465 54.7748L34.4801 55.4016C34.3445 55.3212 34.0803 55.1853 33.7183 55.1853C33.2989 55.1853 33.1284 55.4446 33.1284 55.6831C33.1284 56.0035 33.3436 56.1504 33.8301 56.3418C34.4661 56.6011 34.7876 56.9464 34.7876 57.594C34.7876 58.2347 34.3865 58.8421 33.4247 58.8421C33.0333 58.8421 32.6293 58.7062 32.4168 58.5523L32.5664 57.9074Z" fill="#7EB338"/>
<path d="M35.9968 57.9074C36.2163 58.0628 36.5476 58.2042 36.9082 58.2042C37.3248 58.2042 37.5554 57.9823 37.5554 57.6384C37.5554 57.3375 37.3849 57.1517 36.9082 56.9742C36.2862 56.7481 35.9017 56.3973 35.9017 55.7511C35.9017 55.0646 36.3966 54.5543 37.1654 54.5543C37.5806 54.5543 37.8714 54.6514 38.0768 54.7748L37.9119 55.4016C37.7763 55.3212 37.5107 55.1853 37.15 55.1853C36.7279 55.1853 36.5587 55.4446 36.5587 55.6831C36.5587 56.0035 36.774 56.1504 37.2605 56.3418C37.8965 56.6011 38.218 56.9464 38.218 57.594C38.218 58.2347 37.8154 58.8421 36.8551 58.8421C36.4637 58.8421 36.0583 58.7062 35.8458 58.5523L35.9968 57.9074Z" fill="#7EB338"/>
<path d="M40.0073 58.7686L39.1099 54.6278H39.8032L40.1583 56.5332C40.2548 57.0435 40.3428 57.5899 40.4043 57.9643H40.4141C40.4742 57.5649 40.5693 57.0546 40.6797 56.5276L41.0697 54.6278H41.791L42.1475 56.5748C42.2328 57.0726 42.3068 57.533 42.3614 57.9463H42.3711C42.4313 57.5219 42.5263 57.0435 42.6284 56.5276L43.0254 54.6278H43.6866L42.6787 58.7686H41.9825L41.6009 56.7245C41.5115 56.2309 41.4458 55.8606 41.3996 55.4252H41.3898C41.3339 55.8551 41.2654 56.2295 41.155 56.7162L40.7244 58.7672L40.0073 58.7686Z" fill="#7EB338"/>
<path d="M46.2083 56.9742L45.905 55.9286C45.8295 55.6831 45.768 55.4335 45.7135 55.2102H45.7037C45.6464 55.4377 45.5974 55.6831 45.5317 55.9286L45.2312 56.9742H46.2083ZM45.1222 57.5649L44.7965 58.77H44.1185L45.3109 54.6278H46.1552L47.3825 58.77H46.6752L46.3257 57.5649H45.1222Z" fill="#7EB338"/>
<path d="M48.8377 58.7686V57.0227L47.6593 54.6264H48.4114L48.8629 55.7081C48.9943 56.0228 49.0838 56.2295 49.1844 56.4985H49.1928C49.2893 56.2489 49.3955 56.0076 49.5199 55.7081L49.9812 54.6264H50.7235L49.485 57.006V58.7686H48.8377Z" fill="#7EB338"/>
<path d="M53.3515 54.6278H55.4944V55.2671H53.9959V56.3792H55.3854V57.0171H53.9959V58.7686H53.3515V54.6278Z" fill="white"/>
<path d="M58.3237 58.2278C59.0003 58.2278 59.4169 57.5691 59.4169 56.6857C59.4169 55.8939 59.0311 55.1686 58.3307 55.1686C57.622 55.1686 57.232 55.8745 57.232 56.7218C57.232 57.5469 57.6472 58.2278 58.3196 58.2278H58.3237ZM58.2888 58.8435C57.2432 58.8435 56.5512 57.9463 56.5512 56.7412C56.5512 55.4571 57.2921 54.5543 58.3405 54.5543C59.4211 54.5543 60.0991 55.4501 60.0991 56.6622C60.0991 57.9948 59.333 58.8435 58.2958 58.8435H58.2888Z" fill="white"/>
<path d="M61.8995 56.4999H62.3412C62.7928 56.4999 63.0681 56.2433 63.0681 55.837C63.0681 55.3711 62.7662 55.1783 62.351 55.1783C62.112 55.1783 61.9722 55.2047 61.8995 55.2227V56.4999ZM61.2579 54.6832C61.5095 54.6347 61.8897 54.5917 62.2951 54.5917C62.8207 54.5917 63.1688 54.6999 63.4022 54.9356C63.5895 55.1117 63.7084 55.4085 63.7084 55.7649C63.7084 56.3168 63.3771 56.6718 63.0681 56.7966V56.8147C63.3128 56.9325 63.4637 57.221 63.549 57.5954C63.6692 58.1126 63.7629 58.6036 63.8398 58.77H63.1772C63.1213 58.6465 63.0374 58.329 62.9325 57.7992C62.8207 57.2654 62.6516 57.0865 62.27 57.0754H61.8981V58.7714H61.2565V54.6832H61.2579Z" fill="white"/>
<path d="M71.8999 56.9742L71.5966 55.9286C71.5211 55.6831 71.4596 55.4335 71.4065 55.2102H71.3953C71.3394 55.4377 71.2891 55.6831 71.2248 55.9286L70.9242 56.9742H71.8999ZM70.8152 57.5649L70.4881 58.77H69.8129L71.0053 54.6278H71.8496L73.0783 58.77H72.371L72.0187 57.5649H70.8152Z" fill="white"/>
<path d="M74.37 54.6278H75.0158V58.1043H76.5633V58.7686H74.37V54.6278Z" fill="white"/>
<path d="M77.8605 54.6278H78.5063V58.1043H80.0538V58.7686H77.8605V54.6278Z" fill="white"/>
<path d="M83.8015 58.7686V57.0227L82.6217 54.6264H83.3737L83.8225 55.7081C83.9553 56.0228 84.0447 56.2295 84.1454 56.4985H84.1551C84.2488 56.2489 84.355 56.0076 84.4809 55.7081L84.9422 54.6264H85.6816L84.4445 57.006V58.7686H83.8015Z" fill="white"/>
<path d="M88.2328 58.2278C88.9093 58.2278 89.3259 57.5691 89.3259 56.6857C89.3259 55.8939 88.9387 55.1686 88.2398 55.1686C87.531 55.1686 87.1396 55.8745 87.1396 56.7218C87.1396 57.5469 87.5576 58.2278 88.2286 58.2278H88.2328ZM88.1978 58.8435C87.1522 58.8435 86.4603 57.9463 86.4603 56.7412C86.4603 55.4571 87.2011 54.5543 88.2481 54.5543C89.3315 54.5543 90.0081 55.4501 90.0081 56.6622C90.0081 57.9948 89.242 58.8435 88.2034 58.8435H88.1978Z" fill="white"/>
<path d="M92.0126 54.6278V56.9381C92.0126 57.7923 92.3188 58.2222 92.8094 58.2222C93.3266 58.2222 93.6272 57.7979 93.6272 56.9381V54.6278H94.273V56.909C94.273 58.2541 93.6719 58.8449 92.7801 58.8449C91.9413 58.8449 91.3668 58.2957 91.3668 56.909V54.6278H92.0126Z" fill="white"/>
<path d="M96.4565 56.4999H96.8968C97.3483 56.4999 97.6237 56.2433 97.6237 55.837C97.6237 55.3711 97.3218 55.1783 96.908 55.1783C96.6662 55.1783 96.5264 55.2047 96.4565 55.2227V56.4999ZM95.8149 54.6832C96.0651 54.6347 96.4467 54.5917 96.8521 54.5917C97.3791 54.5917 97.723 54.6999 97.9592 54.9356C98.1465 55.1131 98.2668 55.4099 98.2668 55.7663C98.2668 56.3182 97.9355 56.6732 97.6237 56.798V56.816C97.8698 56.9339 98.0193 57.2224 98.1046 57.5968C98.2262 58.114 98.3199 58.6049 98.3982 58.7714H97.7356C97.6782 58.6479 97.593 58.3304 97.4881 57.8006C97.3791 57.2667 97.2072 57.0878 96.8255 57.0768H96.4551V58.7727H95.8135L95.8149 54.6832Z" fill="white"/>
<path d="M102 55.2712H100.917V54.6278H103.739V55.2712H102.648V58.7686H102V55.2712Z" fill="white"/>
<path d="M106.346 56.9742L106.042 55.9286C105.966 55.6831 105.905 55.4335 105.852 55.2102H105.842C105.786 55.4377 105.734 55.6831 105.67 55.9286L105.369 56.9742H106.346ZM105.262 57.5649L104.936 58.77H104.259L105.452 54.6278H106.296L107.525 58.77H106.818L106.467 57.5649H105.262Z" fill="white"/>
<path d="M110.72 58.7686L110.319 57.9587C110.15 57.6148 110.044 57.393 109.933 57.1655H109.924C109.837 57.3985 109.738 57.6079 109.573 57.9587L109.202 58.7686H108.439L109.559 56.6788L108.48 54.6278H109.244L109.648 55.4806C109.775 55.758 109.869 55.9618 109.96 56.1823H109.974C110.069 55.9369 110.156 55.7469 110.276 55.4876L110.687 54.6278H111.449L110.349 56.6427L111.488 58.7686H110.72Z" fill="white"/>
<path d="M114.605 58.7686V54.6278H115.377L116.354 56.4084C116.615 56.8951 116.819 57.3555 116.991 57.8242L117.005 57.8173C116.956 57.264 116.951 56.7606 116.951 56.1643V54.6292H117.552V58.77H116.867L115.879 56.927C115.633 56.4472 115.384 55.9438 115.199 55.4654L115.178 55.4709C115.202 56.0242 115.208 56.5581 115.208 57.178V58.7686H114.605Z" fill="white"/>
<path d="M121.172 56.9492H119.744V58.1307H121.34V58.7686H119.098V54.6278H121.258V55.2671H119.744V56.3113H121.172V56.9492Z" fill="white"/>
<path d="M124.783 56.9492H123.355V58.1307H124.95V58.7686H122.709V54.6278H124.87V55.2671H123.355V56.3113H124.783V56.9492Z" fill="white"/>
<path d="M126.965 58.1709C127.066 58.1986 127.221 58.1986 127.382 58.1986C128.331 58.2028 128.852 57.5996 128.852 56.6233C128.855 55.7219 128.353 55.2005 127.477 55.2005C127.236 55.2005 127.071 55.2255 126.967 55.2476L126.965 58.1709ZM126.318 54.6832C126.635 54.6278 127.02 54.5917 127.431 54.5917C128.149 54.5917 128.63 54.7692 128.974 55.1131C129.321 55.4501 129.53 55.9313 129.53 56.5886C129.53 57.282 129.315 57.8298 128.977 58.2028C128.602 58.6022 127.995 58.8116 127.264 58.8116C126.846 58.8116 126.547 58.7852 126.315 58.7561V54.6832H126.318Z" fill="white"/>
<path d="M130.911 57.9074C131.132 58.0628 131.465 58.2042 131.823 58.2042C132.239 58.2042 132.469 57.9823 132.469 57.6384C132.469 57.3375 132.298 57.1517 131.823 56.9742C131.202 56.7481 130.815 56.3973 130.815 55.7511C130.815 55.0646 131.31 54.5543 132.077 54.5543C132.495 54.5543 132.785 54.6514 132.989 54.7748L132.824 55.4016C132.69 55.3212 132.423 55.1853 132.061 55.1853C131.641 55.1853 131.471 55.4446 131.471 55.6831C131.471 56.0035 131.687 56.1504 132.174 56.3418C132.808 56.6011 133.13 56.9464 133.13 57.594C133.13 58.2347 132.73 58.8421 131.766 58.8421C131.377 58.8421 130.969 58.7062 130.759 58.5523L130.911 57.9074Z" fill="white"/>
<mask id="mask9_1_528" style="mask-type:luminance" maskUnits="userSpaceOnUse" x="0" y="19" width="34" height="34">
<path d="M0 36.2951C0 45.442 7.47446 52.8542 16.6935 52.8542C25.9139 52.8542 33.387 45.4406 33.387 36.2951C33.387 27.1496 25.9125 19.7347 16.6935 19.7347C7.47446 19.7347 0 27.1496 0 36.2951Z" fill="white"/>
</mask>
<g mask="url(#mask9_1_528)">
<path d="M-0.187302 18.0082V29.9106C0.939389 30.6608 3.71418 32.0489 8.17062 31.4193C14.1591 30.5762 18.4702 26.0291 24.6139 25.9639C28.8271 25.9181 31.8745 27.6113 33.3786 28.6819V18.0096L-0.187302 18.0082Z" fill="white"/>
</g>
<mask id="mask10_1_528" style="mask-type:luminance" maskUnits="userSpaceOnUse" x="0" y="19" width="34" height="34">
<path d="M0 36.2951C0 45.442 7.47446 52.8542 16.6935 52.8542C25.9139 52.8542 33.387 45.4406 33.387 36.2951C33.387 27.1496 25.9125 19.7347 16.6935 19.7347C7.47446 19.7347 0 27.1496 0 36.2951Z" fill="white"/>
</mask>
<g mask="url(#mask10_1_528)">
<path d="M-0.187302 18.0082V29.9106C0.939389 30.6608 3.71418 32.0489 8.17062 31.4193C14.1591 30.5762 18.4702 26.0291 24.6139 25.9639C28.8271 25.9181 31.8745 27.6113 33.3786 28.6819V18.0096L-0.187302 18.0082Z" stroke="white" stroke-width="0.668"/>
</g>
<mask id="mask11_1_528" style="mask-type:luminance" maskUnits="userSpaceOnUse" x="0" y="19" width="34" height="34">
<path d="M0 36.2951C0 45.442 7.47446 52.8542 16.6935 52.8542C25.9139 52.8542 33.387 45.4406 33.387 36.2951C33.387 27.1496 25.9125 19.7347 16.6935 19.7347C7.47446 19.7347 0 27.1496 0 36.2951Z" fill="white"/>
</mask>
<g mask="url(#mask11_1_528)">
<path d="M-0.187302 39.7204V48.5317H-0.0866543C0.861108 48.5275 7.8519 48.8881 12.0847 45.4462C16.6348 41.7422 19.8261 32.1973 26.5332 29.4696C29.0745 28.4365 31.5222 29.0342 33.3786 29.9328V29.2852C32.2505 28.5238 29.2311 26.9929 24.537 28.2992C18.4702 29.9882 15.8338 35.9623 10.3275 38.5611C5.80681 40.6953 1.28606 40.0268 -0.187302 39.7204Z" fill="#426932"/>
</g>
<mask id="mask12_1_528" style="mask-type:luminance" maskUnits="userSpaceOnUse" x="0" y="19" width="34" height="34">
<path d="M0 36.2951C0 45.442 7.47446 52.8542 16.6935 52.8542C25.9139 52.8542 33.387 45.4406 33.387 36.2951C33.387 27.1496 25.9125 19.7347 16.6935 19.7347C7.47446 19.7347 0 27.1496 0 36.2951Z" fill="white"/>
</mask>
<g mask="url(#mask12_1_528)">
<path d="M21.8223 39.3418C21.1793 43.2898 21.463 50.7838 22.1228 53.0275H33.3772V30.4292C31.0972 29.7969 23.578 28.5779 21.8223 39.3418Z" fill="#7EB338"/>
</g>
</svg>
