<svg width="18" height="12" viewBox="0 0 18 12" fill="none" xmlns="http://www.w3.org/2000/svg">
<path d="M10.5913 6.36213L17.034 0.0908468C16.8917 0.0327355 16.7363 0.00012207 16.5732 0.00012207H1.21643C1.05336 0.00012207 0.898005 0.0327355 0.755692 0.0908468L7.19834 6.36213C8.14235 7.28123 9.64672 7.28123 10.5913 6.36213Z" fill="#7EB338"/>
<path d="M6.9759 7.02027L0.197628 0.552124C0.0731036 0.743061 0.000167847 0.970763 0.000167847 1.21566V10.7839C0.000167847 11.4557 0.544517 12.0001 1.21635 12.0001H16.5732C17.245 12.0001 17.7893 11.4557 17.7893 10.7839V1.21625C17.7893 0.971357 17.7164 0.743062 17.5919 0.552718L10.8136 7.02086C9.73974 8.04552 8.04977 8.04552 6.9759 7.02086V7.02027Z" fill="#7EB338"/>
</svg>
