<svg width="17" height="17" viewBox="0 0 17 17" fill="none" xmlns="http://www.w3.org/2000/svg">
<g clip-path="url(#clip0_19_3368)">
<path d="M14.6475 11.832C13.6206 10.9536 12.5783 10.4216 11.564 11.2986L10.9583 11.8287C10.5151 12.2134 9.69115 14.0113 6.50544 10.3466C3.32038 6.68653 5.21576 6.11666 5.65958 5.73519L6.2686 5.20446C7.27765 4.32544 6.89685 3.21886 6.16909 2.07978L5.72991 1.38983C4.99882 0.253399 4.20272 -0.492943 3.19102 0.384755L2.64436 0.862413C2.19722 1.18815 0.947349 2.24696 0.644169 4.25843C0.279291 6.67194 1.43032 9.43572 4.06739 12.4682C6.70114 15.502 9.27984 17.0258 11.7225 16.9993C13.7526 16.9774 14.9786 15.8881 15.362 15.492L15.9107 15.0137C16.9197 14.1367 16.2928 13.2437 15.2652 12.3634L14.6475 11.832Z" fill="#7EB338"/>
</g>
<defs>
<clipPath id="clip0_19_3368">
<rect width="17" height="17" fill="white"/>
</clipPath>
</defs>
</svg>
