<svg width="20" height="21" viewBox="0 0 20 21" fill="none" xmlns="http://www.w3.org/2000/svg">
<g clip-path="url(#clip0_100_518)">
<path d="M10 20.5C4.48578 20.5 0 16.0142 0 10.5C0 4.98578 4.48578 0.5 10 0.5C15.5142 0.5 20 4.98578 20 10.5C20 16.0142 15.5142 20.5 10 20.5ZM10 1.75C5.17502 1.75 1.25 5.67502 1.25 10.5C1.25 15.325 5.17502 19.25 10 19.25C14.825 19.25 18.75 15.325 18.75 10.5C18.75 5.67502 14.825 1.75 10 1.75Z" fill="#7EB338"/>
<path d="M14.375 11.125H5.625C5.28 11.125 5 10.845 5 10.5C5 10.155 5.28 9.875 5.625 9.875H14.375C14.72 9.875 15 10.155 15 10.5C15 10.845 14.72 11.125 14.375 11.125Z" fill="#7EB338"/>
<path d="M10 15.5C9.655 15.5 9.375 15.22 9.375 14.875V6.125C9.375 5.78 9.655 5.5 10 5.5C10.345 5.5 10.625 5.78 10.625 6.125V14.875C10.625 15.22 10.345 15.5 10 15.5Z" fill="#7EB338"/>
</g>
<defs>
<clipPath id="clip0_100_518">
<rect width="20" height="20" fill="white" transform="translate(0 0.5)"/>
</clipPath>
</defs>
</svg>
