<svg width="50" height="48" viewBox="0 0 50 48" fill="none" xmlns="http://www.w3.org/2000/svg">
<path d="M28.8524 16.47L28.9403 16.8179L29.2671 16.6697L43.5884 10.1762L34.0709 22.6935L33.8537 22.9792L34.1734 23.1423L48.1794 30.2905L32.4589 30.6539L32.1001 30.6622L32.1719 31.0138L35.3158 46.4209L25.2302 34.3567L25 34.0814L24.7698 34.3567L14.6842 46.4209L17.8281 31.0138L17.8999 30.6622L17.5411 30.6539L1.82064 30.2905L15.8266 23.1423L16.1463 22.9792L15.9291 22.6935L6.4116 10.1762L20.7329 16.6697L21.0597 16.8179L21.1476 16.47L25 1.22454L28.8524 16.47Z" stroke="#7EB338" stroke-width="0.6"/>
</svg>
